<?xml version="1.0" encoding="UTF-8" standalone="no"?>
<!-- Created with Inkscape (http://www.inkscape.org/) -->

<svg
   xmlns:dc="http://purl.org/dc/elements/1.1/"
   xmlns:cc="http://creativecommons.org/ns#"
   xmlns:rdf="http://www.w3.org/1999/02/22-rdf-syntax-ns#"
   xmlns:svg="http://www.w3.org/2000/svg"
   xmlns="http://www.w3.org/2000/svg"
   xmlns:sodipodi="http://sodipodi.sourceforge.net/DTD/sodipodi-0.dtd"
   xmlns:inkscape="http://www.inkscape.org/namespaces/inkscape"
   width="225.8268"
   height="286.20255"
   id="svg2"
   inkscape:label="Pozadí"
   version="1.1"
   inkscape:version="0.47 r22583"
   sodipodi:docname="Nový dokument 2">
  <defs
     id="defs2870">
    <marker
       inkscape:stockid="Arrow1Mend"
       orient="auto"
       refY="0"
       refX="0"
       id="Arrow1Mend"
       style="overflow:visible">
      <path
         id="path3848"
         d="M 0,0 5,-5 -12.5,0 5,5 0,0 z"
         style="fill-rule:evenodd;stroke:#000000;stroke-width:1pt;marker-start:none"
         transform="matrix(-0.4,0,0,-0.4,-4,0)" />
    </marker>
    <marker
       inkscape:stockid="Arrow2Mstart"
       orient="auto"
       refY="0"
       refX="0"
       id="Arrow2Mstart"
       style="overflow:visible">
      <path
         id="path3863"
         style="font-size:12px;fill-rule:evenodd;stroke-width:0.625;stroke-linejoin:round"
         d="M 8.7185878,4.0337352 -2.2072895,0.01601326 8.7185884,-4.0017078 c -1.7454984,2.3720609 -1.7354408,5.6174519 -6e-7,8.035443 z"
         transform="scale(0.6,0.6)" />
    </marker>
    <marker
       inkscape:stockid="Arrow1Lstart"
       orient="auto"
       refY="0"
       refX="0"
       id="Arrow1Lstart"
       style="overflow:visible">
      <path
         id="path3839"
         d="M 0,0 5,-5 -12.5,0 5,5 0,0 z"
         style="fill-rule:evenodd;stroke:#000000;stroke-width:1pt;marker-start:none"
         transform="matrix(0.8,0,0,0.8,10,0)" />
    </marker>
    <marker
       inkscape:stockid="Arrow1Lend"
       orient="auto"
       refY="0"
       refX="0"
       id="Arrow1Lend"
       style="overflow:visible">
      <path
         id="path3842"
         d="M 0,0 5,-5 -12.5,0 5,5 0,0 z"
         style="fill-rule:evenodd;stroke:#000000;stroke-width:1pt;marker-start:none"
         transform="matrix(-0.8,0,0,-0.8,-10,0)" />
    </marker>
    <inkscape:perspective
       sodipodi:type="inkscape:persp3d"
       inkscape:vp_x="0 : 526.18109 : 1"
       inkscape:vp_y="0 : 1000 : 0"
       inkscape:vp_z="744.09448 : 526.18109 : 1"
       inkscape:persp3d-origin="372.04724 : 350.78739 : 1"
       id="perspective2876" />
    <inkscape:perspective
       id="perspective3787"
       inkscape:persp3d-origin="0.5 : 0.33333333 : 1"
       inkscape:vp_z="1 : 0.5 : 1"
       inkscape:vp_y="0 : 1000 : 0"
       inkscape:vp_x="0 : 0.5 : 1"
       sodipodi:type="inkscape:persp3d" />
  </defs>
  <sodipodi:namedview
     id="base"
     pagecolor="#ffffff"
     bordercolor="#666666"
     borderopacity="1.0"
     inkscape:pageopacity="0.0"
     inkscape:pageshadow="2"
     inkscape:zoom="1.4"
     inkscape:cx="-8.6312645"
     inkscape:cy="108.67006"
     inkscape:document-units="px"
     inkscape:current-layer="layer1"
     showgrid="false"
     inkscape:snap-bbox="true"
     showguides="true"
     inkscape:guide-bbox="true"
     inkscape:window-width="1680"
     inkscape:window-height="978"
     inkscape:window-x="0"
     inkscape:window-y="24"
     inkscape:window-maximized="1">
    <inkscape:grid
       type="xygrid"
       id="grid2878"
       empspacing="5"
       visible="true"
       enabled="true"
       snapvisiblegridlinesonly="true" />
  </sodipodi:namedview>
  <metadata
     id="metadata2873">
    <rdf:RDF>
      <cc:Work
         rdf:about="">
        <dc:format>image/svg+xml</dc:format>
        <dc:type
           rdf:resource="http://purl.org/dc/dcmitype/StillImage" />
        <dc:title></dc:title>
      </cc:Work>
    </rdf:RDF>
  </metadata>
  <g
     inkscape:label="Vrstva 1"
     inkscape:groupmode="layer"
     id="layer1"
     transform="translate(-89.363074,-171.28623)">
    <g
       id="g3756"
       transform="matrix(0.43037975,0,0,0.43037975,56.962025,98.180988)">
      <path
         sodipodi:nodetypes="ccccc"
         id="path2880"
         d="m 350,832.36218 0,-100 -238.88322,-250.73619 239.26381,-239.26381 0,-70"
         style="fill:none;stroke:#000000;stroke-width:5;stroke-linecap:butt;stroke-linejoin:miter;stroke-miterlimit:4;stroke-opacity:1;stroke-dasharray:none" />
      <path
         sodipodi:nodetypes="ccccc"
         id="path2882"
         d="M 351.53309,732.14383 520,552.36218 l -70,-70 70,-70 -170,-170"
         style="fill:none;stroke:#000000;stroke-width:5;stroke-linecap:butt;stroke-linejoin:miter;stroke-miterlimit:4;stroke-opacity:1;stroke-dasharray:none" />
      <path
         id="path2884"
         d="M 521.23871,551.32652 520,412.36218"
         style="fill:none;stroke:#000000;stroke-width:5;stroke-linecap:butt;stroke-linejoin:miter;stroke-miterlimit:4;stroke-opacity:1;stroke-dasharray:none" />
      <path
         id="path2886"
         d="m 520,552.36218 70,-70 -70,-70"
         style="fill:none;stroke:#000000;stroke-width:5;stroke-linecap:butt;stroke-linejoin:miter;stroke-miterlimit:4;stroke-opacity:1;stroke-dasharray:none" />
      <path
         sodipodi:nodetypes="ccccc"
         id="path2888"
         d="m 450,482.36218 -70,70 -70,-70 70,-70 70,70 z"
         style="fill:none;stroke:#000000;stroke-width:5;stroke-linecap:butt;stroke-linejoin:miter;stroke-miterlimit:4;stroke-opacity:1;stroke-dasharray:none" />
      <path
         transform="translate(0,-5)"
         d="m 130,487.36218 c 0,8.28427 -6.71573,15 -15,15 -8.28427,0 -15,-6.71573 -15,-15 0,-8.28427 6.71573,-15 15,-15 8.28427,0 15,6.71573 15,15 z"
         sodipodi:ry="15"
         sodipodi:rx="15"
         sodipodi:cy="487.36218"
         sodipodi:cx="115"
         id="path2890"
         style="stroke-width:0.5;stroke-miterlimit:4;stroke-dasharray:none"
         sodipodi:type="arc" />
      <path
         sodipodi:type="arc"
         style="stroke-width:0.5;stroke-miterlimit:4;stroke-dasharray:none"
         id="path2892"
         sodipodi:cx="115"
         sodipodi:cy="487.36218"
         sodipodi:rx="15"
         sodipodi:ry="15"
         d="m 130,487.36218 c 0,8.28427 -6.71573,15 -15,15 -8.28427,0 -15,-6.71573 -15,-15 0,-8.28427 6.71573,-15 15,-15 8.28427,0 15,6.71573 15,15 z"
         transform="translate(235,-240)" />
      <path
         transform="translate(235,240)"
         d="m 130,487.36218 c 0,8.28427 -6.71573,15 -15,15 -8.28427,0 -15,-6.71573 -15,-15 0,-8.28427 6.71573,-15 15,-15 8.28427,0 15,6.71573 15,15 z"
         sodipodi:ry="15"
         sodipodi:rx="15"
         sodipodi:cy="487.36218"
         sodipodi:cx="115"
         id="path2894"
         style="stroke-width:0.5;stroke-miterlimit:4;stroke-dasharray:none"
         sodipodi:type="arc" />
      <path
         transform="translate(200,-5)"
         d="m 130,487.36218 c 0,8.28427 -6.71573,15 -15,15 -8.28427,0 -15,-6.71573 -15,-15 0,-8.28427 6.71573,-15 15,-15 8.28427,0 15,6.71573 15,15 z"
         sodipodi:ry="15"
         sodipodi:rx="15"
         sodipodi:cy="487.36218"
         sodipodi:cx="115"
         id="path2896"
         style="stroke-width:0.5;stroke-miterlimit:4;stroke-dasharray:none"
         sodipodi:type="arc" />
      <path
         sodipodi:type="arc"
         style="stroke-width:0.5;stroke-miterlimit:4;stroke-dasharray:none"
         id="path2898"
         sodipodi:cx="115"
         sodipodi:cy="487.36218"
         sodipodi:rx="15"
         sodipodi:ry="15"
         d="m 130,487.36218 c 0,8.28427 -6.71573,15 -15,15 -8.28427,0 -15,-6.71573 -15,-15 0,-8.28427 6.71573,-15 15,-15 8.28427,0 15,6.71573 15,15 z"
         transform="translate(265,-70)" />
      <path
         transform="translate(265,60)"
         d="m 130,487.36218 c 0,8.28427 -6.71573,15 -15,15 -8.28427,0 -15,-6.71573 -15,-15 0,-8.28427 6.71573,-15 15,-15 8.28427,0 15,6.71573 15,15 z"
         sodipodi:ry="15"
         sodipodi:rx="15"
         sodipodi:cy="487.36218"
         sodipodi:cx="115"
         id="path2900"
         style="stroke-width:0.5;stroke-miterlimit:4;stroke-dasharray:none"
         sodipodi:type="arc" />
      <path
         sodipodi:type="arc"
         style="stroke-width:0.5;stroke-miterlimit:4;stroke-dasharray:none"
         id="path2902"
         sodipodi:cx="115"
         sodipodi:cy="487.36218"
         sodipodi:rx="15"
         sodipodi:ry="15"
         d="m 130,487.36218 c 0,8.28427 -6.71573,15 -15,15 -8.28427,0 -15,-6.71573 -15,-15 0,-8.28427 6.71573,-15 15,-15 8.28427,0 15,6.71573 15,15 z"
         transform="translate(330,-5)" />
      <path
         transform="translate(405,-70)"
         d="m 130,487.36218 c 0,8.28427 -6.71573,15 -15,15 -8.28427,0 -15,-6.71573 -15,-15 0,-8.28427 6.71573,-15 15,-15 8.28427,0 15,6.71573 15,15 z"
         sodipodi:ry="15"
         sodipodi:rx="15"
         sodipodi:cy="487.36218"
         sodipodi:cx="115"
         id="path2904"
         style="stroke-width:0.5;stroke-miterlimit:4;stroke-dasharray:none"
         sodipodi:type="arc" />
      <path
         sodipodi:type="arc"
         style="stroke-width:0.5;stroke-miterlimit:4;stroke-dasharray:none"
         id="path2906"
         sodipodi:cx="115"
         sodipodi:cy="487.36218"
         sodipodi:rx="15"
         sodipodi:ry="15"
         d="m 130,487.36218 c 0,8.28427 -6.71573,15 -15,15 -8.28427,0 -15,-6.71573 -15,-15 0,-8.28427 6.71573,-15 15,-15 8.28427,0 15,6.71573 15,15 z"
         transform="translate(405,65)" />
      <path
         transform="translate(470,-5)"
         d="m 130,487.36218 c 0,8.28427 -6.71573,15 -15,15 -8.28427,0 -15,-6.71573 -15,-15 0,-8.28427 6.71573,-15 15,-15 8.28427,0 15,6.71573 15,15 z"
         sodipodi:ry="15"
         sodipodi:rx="15"
         sodipodi:cy="487.36218"
         sodipodi:cx="115"
         id="path2908"
         style="stroke-width:0.5;stroke-miterlimit:4;stroke-dasharray:none"
         sodipodi:type="arc" />
      <path
         sodipodi:type="arc"
         style="stroke-width:0.5;stroke-miterlimit:4;stroke-dasharray:none"
         id="path2926"
         sodipodi:cx="115"
         sodipodi:cy="487.36218"
         sodipodi:rx="15"
         sodipodi:ry="15"
         d="m 130,487.36218 c 0,8.28427 -6.71573,15 -15,15 -8.28427,0 -15,-6.71573 -15,-15 0,-8.28427 6.71573,-15 15,-15 8.28427,0 15,6.71573 15,15 z"
         transform="translate(174,181)" />
      <path
         transform="translate(60,65)"
         d="m 130,487.36218 c 0,8.28427 -6.71573,15 -15,15 -8.28427,0 -15,-6.71573 -15,-15 0,-8.28427 6.71573,-15 15,-15 8.28427,0 15,6.71573 15,15 z"
         sodipodi:ry="15"
         sodipodi:rx="15"
         sodipodi:cy="487.36218"
         sodipodi:cx="115"
         id="path2928"
         style="stroke-width:0.5;stroke-miterlimit:4;stroke-dasharray:none"
         sodipodi:type="arc" />
      <path
         sodipodi:type="arc"
         style="stroke-width:0.5;stroke-miterlimit:4;stroke-dasharray:none"
         id="path2930"
         sodipodi:cx="115"
         sodipodi:cy="487.36218"
         sodipodi:rx="15"
         sodipodi:ry="15"
         d="m 130,487.36218 c 0,8.28427 -6.71573,15 -15,15 -8.28427,0 -15,-6.71573 -15,-15 0,-8.28427 6.71573,-15 15,-15 8.28427,0 15,6.71573 15,15 z"
         transform="translate(120,125)" />
      <path
         sodipodi:type="arc"
         style="stroke-width:0.5;stroke-miterlimit:4;stroke-dasharray:none"
         id="path2932"
         sodipodi:cx="115"
         sodipodi:cy="487.36218"
         sodipodi:rx="15"
         sodipodi:ry="15"
         d="m 130,487.36218 c 0,8.28427 -6.71573,15 -15,15 -8.28427,0 -15,-6.71573 -15,-15 0,-8.28427 6.71573,-15 15,-15 8.28427,0 15,6.71573 15,15 z"
         transform="matrix(-1,0,0,1,290,-68)" />
      <path
         transform="matrix(-1,0,0,1,351,-127)"
         d="m 130,487.36218 c 0,8.28427 -6.71573,15 -15,15 -8.28427,0 -15,-6.71573 -15,-15 0,-8.28427 6.71573,-15 15,-15 8.28427,0 15,6.71573 15,15 z"
         sodipodi:ry="15"
         sodipodi:rx="15"
         sodipodi:cy="487.36218"
         sodipodi:cx="115"
         id="path2934"
         style="stroke-width:0.5;stroke-miterlimit:4;stroke-dasharray:none"
         sodipodi:type="arc" />
      <path
         transform="matrix(-1,0,0,1,405,-183)"
         d="m 130,487.36218 c 0,8.28427 -6.71573,15 -15,15 -8.28427,0 -15,-6.71573 -15,-15 0,-8.28427 6.71573,-15 15,-15 8.28427,0 15,6.71573 15,15 z"
         sodipodi:ry="15"
         sodipodi:rx="15"
         sodipodi:cy="487.36218"
         sodipodi:cx="115"
         id="path2938"
         style="stroke-width:0.5;stroke-miterlimit:4;stroke-dasharray:none"
         sodipodi:type="arc" />
    </g>
    <g
       id="g3837"
       transform="matrix(1.933694,0,0,1.933694,-306.0704,-526.64729)">
      <path
         d="m 259.64285,491.46933 c 0,1.18347 -0.99937,2.14286 -2.23214,2.14286 -1.23278,0 -2.23215,-0.95939 -2.23215,-2.14286 0,-1.18347 0.99937,-2.14286 2.23215,-2.14286 1.23277,0 2.23214,0.95939 2.23214,2.14286 z"
         sodipodi:ry="2.1428571"
         sodipodi:rx="2.2321429"
         sodipodi:cy="491.46933"
         sodipodi:cx="257.41071"
         id="path3795"
         style="stroke-width:5;stroke-miterlimit:4;stroke-dasharray:none"
         sodipodi:type="arc" />
      <path
         transform="translate(-0.17857143,-1.7857143)"
         d="m 258.75,498.96933 c 0,2.16969 -0.55964,3.92857 -1.25,3.92857 -0.69036,0 -1.25,-1.75888 -1.25,-3.92857 0,-2.16969 0.55964,-3.92857 1.25,-3.92857 0.69036,0 1.25,1.75888 1.25,3.92857 z"
         sodipodi:ry="3.9285715"
         sodipodi:rx="1.25"
         sodipodi:cy="498.96933"
         sodipodi:cx="257.5"
         id="path3797"
         style="stroke-width:5;stroke-miterlimit:4;stroke-dasharray:none"
         sodipodi:type="arc" />
      <path
         id="path3815"
         d="m 254.33036,493.79075 2.54464,1.33929"
         style="fill:none;stroke:#000000;stroke-width:1px;stroke-linecap:butt;stroke-linejoin:miter;stroke-opacity:1" />
      <path
         id="path3817"
         d="m 254.12947,496.17914 2.76785,0.40179"
         style="fill:none;stroke:#000000;stroke-width:1px;stroke-linecap:butt;stroke-linejoin:miter;stroke-opacity:1" />
      <path
         id="path3819"
         d="m 254.48661,498.6345 2.5,-0.42411"
         style="fill:none;stroke:#000000;stroke-width:1px;stroke-linecap:butt;stroke-linejoin:miter;stroke-opacity:1" />
      <path
         id="path3823"
         d="m 257.5,495.01843 c 0.24554,-0.29018 2.45536,-0.87054 2.45536,-0.87054"
         style="fill:none;stroke:#000000;stroke-width:1px;stroke-linecap:butt;stroke-linejoin:miter;stroke-opacity:1" />
      <path
         id="path3825"
         d="m 257.61161,496.447 2.8125,-0.53571"
         style="fill:none;stroke:#000000;stroke-width:1px;stroke-linecap:butt;stroke-linejoin:miter;stroke-opacity:1" />
      <path
         id="path3827"
         d="m 257.83482,498.14343 2.45536,0.89286"
         style="fill:none;stroke:#000000;stroke-width:1px;stroke-linecap:butt;stroke-linejoin:miter;stroke-opacity:1" />
      <path
         d="m 259.44196,502.76398 c 0,1.78753 -0.97438,3.2366 -2.17634,3.2366 -1.20195,0 -2.17633,-1.44907 -2.17633,-3.2366 0,-1.78753 0.97438,-3.23661 2.17633,-3.23661 1.20196,0 2.17634,1.44908 2.17634,3.23661 z"
         sodipodi:ry="3.2366071"
         sodipodi:rx="2.1763394"
         sodipodi:cy="502.76398"
         sodipodi:cx="257.26562"
         id="path3831"
         style="stroke-width:5;stroke-miterlimit:4;stroke-dasharray:none"
         sodipodi:type="arc" />
      <path
         id="path3833"
         d="m 256.54018,490.33093 c -0.29018,-0.3125 -3.08036,-3.01339 -3.08036,-3.01339 l 2.14286,0.24553"
         style="fill:none;stroke:#000000;stroke-width:0.5;stroke-linecap:butt;stroke-linejoin:miter;stroke-miterlimit:4;stroke-opacity:1;stroke-dasharray:none" />
      <path
         id="path3835"
         d="m 258.14732,490.86664 c 0.8259,-0.40178 3.81697,-3.37053 3.81697,-3.37053 l -2.25447,-0.13393"
         style="fill:none;stroke:#000000;stroke-width:0.5;stroke-linecap:butt;stroke-linejoin:miter;stroke-miterlimit:4;stroke-opacity:1;stroke-dasharray:none" />
    </g>
    <path
       style="fill:none;stroke:#000000;stroke-width:2.5999999;stroke-linecap:butt;stroke-linejoin:miter;stroke-miterlimit:4;stroke-opacity:1;stroke-dasharray:none;marker-start:none;marker-mid:none;marker-end:url(#Arrow1Lend)"
       d="M 71.215754,239.23045 C -27.779195,188.72282 -46.972093,83.66696 78.791899,29.623799"
       id="path3834"
       transform="translate(100,171.28623)" />
    <path
       sodipodi:type="spiral"
       style="fill:none;stroke:#000000;stroke-width:2.88732457;stroke-linecap:butt;stroke-linejoin:miter;stroke-miterlimit:3.5;stroke-opacity:1;stroke-dasharray:none;marker-start:url(#Arrow2Mstart);marker-end:url(#Arrow2Mstart)"
       id="path5219"
       sodipodi:cx="-60.714287"
       sodipodi:cy="134.41682"
       sodipodi:expansion="0.1"
       sodipodi:revolution="1.21"
       sodipodi:radius="69.069298"
       sodipodi:argument="-21.203922"
       sodipodi:t0="0.079999998"
       d="M -70.074608,81.586633 C -39.49685,70.828055 -7.4413886,93.777795 -0.69337908,123.78247 6.8585349,157.36166 -16.116765,190.95132 -49.486708,197.78592 c -35.106286,7.19024 -69.979572,-16.78461 -76.853092,-51.74173 -7.11635,-36.19209 17.62009,-72.040016 53.693438,-78.972682 16.078433,-3.089992 33.017741,-0.213084 47.199848,7.958853"
       transform="matrix(0.74186323,0,0,0.74186323,263.01379,208.15791)" />
    <g
       transform="matrix(0.42718865,-1.8859168,1.8859168,0.42718865,-824.79317,519.80737)"
       id="g6723">
      <path
         sodipodi:type="arc"
         style="stroke-width:5;stroke-miterlimit:4;stroke-dasharray:none"
         id="path6725"
         sodipodi:cx="257.41071"
         sodipodi:cy="491.46933"
         sodipodi:rx="2.2321429"
         sodipodi:ry="2.1428571"
         d="m 259.64285,491.46933 c 0,1.18347 -0.99937,2.14286 -2.23214,2.14286 -1.23278,0 -2.23215,-0.95939 -2.23215,-2.14286 0,-1.18347 0.99937,-2.14286 2.23215,-2.14286 1.23277,0 2.23214,0.95939 2.23214,2.14286 z" />
      <path
         sodipodi:type="arc"
         style="stroke-width:5;stroke-miterlimit:4;stroke-dasharray:none"
         id="path6727"
         sodipodi:cx="257.5"
         sodipodi:cy="498.96933"
         sodipodi:rx="1.25"
         sodipodi:ry="3.9285715"
         d="m 258.75,498.96933 c 0,2.16969 -0.55964,3.92857 -1.25,3.92857 -0.69036,0 -1.25,-1.75888 -1.25,-3.92857 0,-2.16969 0.55964,-3.92857 1.25,-3.92857 0.69036,0 1.25,1.75888 1.25,3.92857 z"
         transform="translate(-0.17857143,-1.7857143)" />
      <path
         style="fill:none;stroke:#000000;stroke-width:1px;stroke-linecap:butt;stroke-linejoin:miter;stroke-opacity:1"
         d="m 254.33036,493.79075 2.54464,1.33929"
         id="path6729" />
      <path
         style="fill:none;stroke:#000000;stroke-width:1px;stroke-linecap:butt;stroke-linejoin:miter;stroke-opacity:1"
         d="m 254.12947,496.17914 2.76785,0.40179"
         id="path6731" />
      <path
         style="fill:none;stroke:#000000;stroke-width:1px;stroke-linecap:butt;stroke-linejoin:miter;stroke-opacity:1"
         d="m 254.48661,498.6345 2.5,-0.42411"
         id="path6733" />
      <path
         style="fill:none;stroke:#000000;stroke-width:1px;stroke-linecap:butt;stroke-linejoin:miter;stroke-opacity:1"
         d="m 257.5,495.01843 c 0.24554,-0.29018 2.45536,-0.87054 2.45536,-0.87054"
         id="path6735" />
      <path
         style="fill:none;stroke:#000000;stroke-width:1px;stroke-linecap:butt;stroke-linejoin:miter;stroke-opacity:1"
         d="m 257.61161,496.447 2.8125,-0.53571"
         id="path6737" />
      <path
         style="fill:none;stroke:#000000;stroke-width:1px;stroke-linecap:butt;stroke-linejoin:miter;stroke-opacity:1"
         d="m 257.83482,498.14343 2.45536,0.89286"
         id="path6739" />
      <path
         sodipodi:type="arc"
         style="stroke-width:5;stroke-miterlimit:4;stroke-dasharray:none"
         id="path6741"
         sodipodi:cx="257.26562"
         sodipodi:cy="502.76398"
         sodipodi:rx="2.1763394"
         sodipodi:ry="3.2366071"
         d="m 259.44196,502.76398 c 0,1.78753 -0.97438,3.2366 -2.17634,3.2366 -1.20195,0 -2.17633,-1.44907 -2.17633,-3.2366 0,-1.78753 0.97438,-3.23661 2.17633,-3.23661 1.20196,0 2.17634,1.44908 2.17634,3.23661 z" />
      <path
         style="fill:none;stroke:#000000;stroke-width:0.5;stroke-linecap:butt;stroke-linejoin:miter;stroke-miterlimit:4;stroke-opacity:1;stroke-dasharray:none"
         d="m 256.54018,490.33093 c -0.29018,-0.3125 -3.08036,-3.01339 -3.08036,-3.01339 l 2.14286,0.24553"
         id="path6743" />
      <path
         style="fill:none;stroke:#000000;stroke-width:0.5;stroke-linecap:butt;stroke-linejoin:miter;stroke-miterlimit:4;stroke-opacity:1;stroke-dasharray:none"
         d="m 258.14732,490.86664 c 0.8259,-0.40178 3.81697,-3.37053 3.81697,-3.37053 l -2.25447,-0.13393"
         id="path6745" />
    </g>
  </g>
</svg>
